<svg xmlns="http://www.w3.org/2000/svg" viewBox="0 0 512 512" data-copyright="© 2026 Sensory App House"><g transform="translate(0.000,101.069) scale(0.8026)"><!--SAH-COPYRIGHT © 2026 Sensory App House. All rights reserved.--><metadata id="sah-copyright"><rdf:RDF xmlns:rdf="http://www.w3.org/1999/02/22-rdf-syntax-ns#" xmlns:dc="http://purl.org/dc/elements/1.1/" xmlns:cc="http://creativecommons.org/ns#"><cc:Work rdf:about=""><dc:rights><cc:Agent><dc:title>© 2026 Sensory App House. All rights reserved.</dc:title></cc:Agent></dc:rights><dc:creator><cc:Agent><dc:title>Sensory App House (PiCom)</dc:title></cc:Agent></dc:creator><dc:date>2026</dc:date></cc:Work></rdf:RDF></metadata><g data-fit="1" transform="translate(256 256) scale(0.8993) translate(-256.00 -261.50)">
<rect x="28.0" y="40.0" width="456.0" height="432.0" rx="18" fill="#3fae5a" stroke="#2e8b46" stroke-width="0"/>
<path d="M 200 40 C 120 150 360 200 280 300 C 220 380 360 420 250 472" fill="none" stroke="#2b86b3" stroke-width="96" stroke-linejoin="round"/>
<path d="M 200 40 C 120 150 360 200 280 300 C 220 380 360 420 250 472" fill="none" stroke="#3aa6d6" stroke-width="76" stroke-linejoin="round"/>
<path d="M 154 130 q 22 -14 44 0" fill="none" stroke="#eaf6fb" stroke-width="6" stroke-linejoin="round"/>
<path d="M 278 235 q 22 -14 44 0" fill="none" stroke="#eaf6fb" stroke-width="6" stroke-linejoin="round"/>
<path d="M 228 360 q 22 -14 44 0" fill="none" stroke="#eaf6fb" stroke-width="6" stroke-linejoin="round"/>
<path d="M 258 430 q 22 -14 44 0" fill="none" stroke="#eaf6fb" stroke-width="6" stroke-linejoin="round"/>
</g></g><g transform="translate(360 8) scale(0.2812)"><defs><radialGradient id="plg2587" cx="40%" cy="35%" r="65%"><stop offset="0%" stop-color="#7ed957"/><stop offset="100%" stop-color="#3aa324"/></radialGradient></defs><path d="M 256.0,56.0 L 281.0,212.7 L 429.2,156.0 L 306.0,256.0 L 429.2,356.0 L 281.0,299.3 L 256.0,456.0 L 231.0,299.3 L 82.8,356.0 L 206.0,256.0 L 82.8,156.0 L 231.0,212.7 Z" fill="url(#plg2587)" stroke="#1a1a1a" stroke-width="14" stroke-linejoin="round"/></g></svg>
