<svg xmlns="http://www.w3.org/2000/svg" viewBox="0 0 512 512" data-copyright="© 2026 Sensory App House"><!--SAH-COPYRIGHT © 2026 Sensory App House. All rights reserved.--><metadata id="sah-copyright"><rdf:RDF xmlns:rdf="http://www.w3.org/1999/02/22-rdf-syntax-ns#" xmlns:dc="http://purl.org/dc/elements/1.1/" xmlns:cc="http://creativecommons.org/ns#"><cc:Work rdf:about=""><dc:rights><cc:Agent><dc:title>© 2026 Sensory App House. All rights reserved.</dc:title></cc:Agent></dc:rights><dc:creator><cc:Agent><dc:title>Sensory App House (PiCom)</dc:title></cc:Agent></dc:creator><dc:date>2026</dc:date></cc:Work></rdf:RDF></metadata><g data-fit="1" transform="translate(44.00 80.55) scale(1.4621)">
  <path d="M 15,205 Q 70,200 145,205 Q 220,200 275,205 L 275,225 L 15,225 Z" fill="#67832d" stroke="#1a1a1a" stroke-width="5.93" stroke-linejoin="round" stroke-linecap="round"></path>
  <path d="M 28,200 L 35,150 L 28,152 L 38,108 L 32,110 L 45,70 L 58,110 L 52,108 L 62,150 L 55,148 L 62,200 Z" fill="#137827" stroke="#1a1a1a" stroke-width="5.93" stroke-linejoin="round" stroke-linecap="round"></path>
  <path d="M 42,200 L 48,200 L 48,210 L 42,210 Z" fill="#5e1f0a" stroke="#1a1a1a" stroke-width="2.96" stroke-linejoin="round" stroke-linecap="round"></path>
  <path d="M 60,85 Q 50,55 80,42 Q 110,38 130,55 Q 145,42 162,55 Q 178,75 165,92 Q 178,108 158,118 Q 138,122 125,112 Q 110,122 92,118 Q 75,118 65,108 Q 50,98 60,85 Z" fill="#137827" stroke="#1a1a1a" stroke-width="5.93" stroke-linejoin="round" stroke-linecap="round"></path>
  <path d="M 105,118 L 100,150 L 110,150 Z" fill="#5e1f0a" stroke="#1a1a1a" stroke-width="4.45" stroke-linejoin="round" stroke-linecap="round"></path>
  <path d="M 88,148 Q 110,142 128,148 Q 130,156 122,160 L 96,160 Q 86,156 88,148 Z" fill="#7d5e23" stroke="#1a1a1a" stroke-width="4.45" stroke-linejoin="round" stroke-linecap="round"></path>
  <path d="M 95,148 Q 100,145 105,148 Q 110,145 115,148 Q 120,145 122,148" fill="none" stroke="#5e1f0a" stroke-width="2.96" stroke-linejoin="round" stroke-linecap="round"></path>
  <ellipse cx="108" cy="153" rx="4" ry="3" fill="#2a4ec0" stroke="#1a1a1a" stroke-width="2.96" stroke-linejoin="round" stroke-linecap="round"></ellipse>
  <ellipse cx="115" cy="153" rx="4" ry="3" fill="#2a4ec0" stroke="#1a1a1a" stroke-width="2.96" stroke-linejoin="round" stroke-linecap="round"></ellipse>
  <path d="M 165,158 Q 170,148 178,148 L 230,148 Q 238,150 240,160 L 240,182 Q 238,200 225,205 L 185,205 Q 168,200 165,180 Z" fill="#9d7246" stroke="#1a1a1a" stroke-width="7.40" stroke-linejoin="round" stroke-linecap="round"></path>
  <ellipse cx="170" cy="155" rx="10" ry="20" fill="#9d7246" stroke="#1a1a1a" stroke-width="7.40" stroke-linejoin="round" stroke-linecap="round" transform="rotate(-25 170 155)"></ellipse>
  <path d="M 158,135 L 168,148 L 162,148 L 168,158 L 158,148 L 162,142 Z" fill="#9d7246" stroke="#1a1a1a" stroke-width="4.45" stroke-linejoin="round" stroke-linecap="round"></path>
  <circle cx="175" cy="158" r="2.5" fill="#000000" stroke="#1a1a1a" stroke-width="0.00"></circle>
  <ellipse cx="168" cy="165" rx="3" ry="2" fill="#000000" stroke="#1a1a1a" stroke-width="0.00"></ellipse>
  <path d="M 175,205 L 175,218 M 195,205 L 195,218 M 215,205 L 215,218 M 232,205 L 232,218" fill="none" stroke="#1a1a1a" stroke-width="5.93" stroke-linejoin="round" stroke-linecap="round"></path>
</g></svg>