<svg xmlns="http://www.w3.org/2000/svg" viewBox="0 0 512 512" data-copyright="© 2026 Sensory App House"><!--SAH-COPYRIGHT © 2026 Sensory App House. All rights reserved.--><metadata id="sah-copyright"><rdf:RDF xmlns:rdf="http://www.w3.org/1999/02/22-rdf-syntax-ns#" xmlns:dc="http://purl.org/dc/elements/1.1/" xmlns:cc="http://creativecommons.org/ns#"><cc:Work rdf:about=""><dc:rights><cc:Agent><dc:title>© 2026 Sensory App House. All rights reserved.</dc:title></cc:Agent></dc:rights><dc:creator><cc:Agent><dc:title>Sensory App House (PiCom)</dc:title></cc:Agent></dc:creator><dc:date>2026</dc:date></cc:Work></rdf:RDF></metadata><g data-fit="1" transform="translate(44.00 80.55) scale(1.4621)">
  
  <ellipse cx="145" cy="155" rx="108" ry="60" fill="#dff3fd" stroke="#1a1a1a" stroke-width="7.40" stroke-linejoin="round"/>
  
  <ellipse cx="145" cy="155" rx="108" ry="60" fill="none" stroke="#90a7d6" stroke-width="4.45"/>
  
  <ellipse cx="145" cy="163" rx="98" ry="44" fill="#ffffff" stroke="#1a1a1a" stroke-width="4.45"/>

  
  <circle cx="130" cy="160" r="34" fill="#f5e7c4" stroke="#1a1a1a" stroke-width="7.40" stroke-linejoin="round"/>
  
  <circle cx="130" cy="160" r="24" fill="#eed5b6" stroke="#1a1a1a" stroke-width="4.45"/>
  
  <circle cx="130" cy="160" r="10" fill="#e6b98a" stroke="#1a1a1a" stroke-width="4.45"/>

  
  <ellipse cx="186" cy="148" rx="8" ry="5" fill="#ffffff" stroke="#1a1a1a" stroke-width="4.45"/>
  <path d="M 194 148 Q 210 138, 222 144 Q 230 148, 222 154 Q 210 160, 194 154" fill="none" stroke="#1a1a1a" stroke-width="4.45" stroke-linecap="round"/>

  
  <rect x="186" y="48" width="10" height="40" rx="3" fill="#efefef" stroke="#1a1a1a" stroke-width="5.93" stroke-linejoin="round"/>
  <polygon points="186,88 196,88 191,105" fill="#dff3fd" stroke="#1a1a1a" stroke-width="5.93" stroke-linejoin="round"/>
  
  <ellipse cx="191" cy="44" rx="12" ry="10" fill="#90a7d6" stroke="#1a1a1a" stroke-width="5.93" stroke-linejoin="round"/>
  
  <ellipse cx="191" cy="114" rx="4" ry="6" fill="#dff3fd" stroke="#1a1a1a" stroke-width="4.45"/>

  
  <path d="M 145 40 C 145 33, 136 28, 132 34 C 128 40, 136 50, 145 58 C 154 50, 162 40, 158 34 C 154 28, 145 33, 145 40 Z" fill="#f8130d" stroke="#1a1a1a" stroke-width="5.93" stroke-linejoin="round"/>
</g></svg>