<svg xmlns="http://www.w3.org/2000/svg" viewBox="0 0 512 512" data-copyright="© 2026 Sensory App House"><!--SAH-COPYRIGHT © 2026 Sensory App House. All rights reserved.--><metadata id="sah-copyright"><rdf:RDF xmlns:rdf="http://www.w3.org/1999/02/22-rdf-syntax-ns#" xmlns:dc="http://purl.org/dc/elements/1.1/" xmlns:cc="http://creativecommons.org/ns#"><cc:Work rdf:about=""><dc:rights><cc:Agent><dc:title>© 2026 Sensory App House. All rights reserved.</dc:title></cc:Agent></dc:rights><dc:creator><cc:Agent><dc:title>Sensory App House (PiCom)</dc:title></cc:Agent></dc:creator><dc:date>2026</dc:date></cc:Work></rdf:RDF></metadata><g data-fit="1" transform="translate(44.00 80.55) scale(0.7310)">
  <metadata>
    <mdcr:info xmlns:mdcr="http://sensory.com/mdcr">
      <mdcr:source format="WMF" generator="wmf2svg.html"/>
      <mdcr:bounds left="0" top="0" right="2900" bottom="2400" inch="1440"/>
      <mdcr:records count="3">
        <mdcr:record tag="MDCR-{"/>
        <mdcr:record tag="MDCR-Vh" value="(c) Sensory Software Ltd and Claro Software Ltd"/>
        <mdcr:record tag="MDCR-}"/>
      </mdcr:records>
    </mdcr:info>
  </metadata>
  <g data-mdcr="group" class="mdcr-region" data-mdcr-tag="MDCR-Vh" data-mdcr-value="(c) Sensory Software Ltd and Claro Software Ltd">
    <polygon points="267,112 267,112 254,113 240,114 223,116 204,119 185,123 167,129 158,132 151,136 151,136 144,139 127,149 117,156 105,164 94,174 82,185 72,197 63,211 60,218 57,225 54,233 52,241 52,250 52,258 53,267 55,276 58,286 62,295 67,305 74,316 74,316 79,323 86,331 95,341 107,353 122,366 140,379 161,391 173,397 185,402 199,408 213,412 228,416 244,419 261,422 279,423 297,424 317,424 337,422 359,420 381,416 405,411 429,404 454,396 454,396 457,395 465,392 476,385 482,380 488,374 495,367 501,358 507,348 513,337 518,324 521,310 524,294 526,276 526,276 526,272 524,260 522,251 519,242 515,231 509,220 502,208 493,196 481,184 467,172 451,161 432,150 410,140 384,131 267,112" fill="#ffe398" stroke="#1a1a1a" stroke-width="8.89" fill-rule="evenodd"/>
    <polygon points="256,138 256,138 259,137 264,134 268,132 270,128 273,124 274,118 274,118 275,110 280,92 283,83 287,74 292,66 294,64 297,62 297,62 299,60 304,54 313,47 324,40 331,37 339,35 347,33 355,32 365,33 375,34 385,37 396,42 396,42 399,45 402,49 404,54 407,60 408,68 407,76 404,86 404,86 403,90 399,101 395,108 391,114 384,120 377,125 377,125 371,130 365,134 360,140 356,145 355,148 355,150 356,152 359,154 362,155 368,155 368,155 371,157 380,161 393,169 408,180 416,187 424,196 432,205 439,215 445,227 451,239 455,253 459,269 459,269 460,277 460,287 458,299 457,305 454,312 451,318 447,325 442,331 436,337 428,343 419,348 419,348 413,350 395,354 369,359 353,361 336,363 318,364 299,364 280,363 260,360 241,356 222,350 213,346 204,342 195,337 187,331 187,331 183,329 173,323 159,312 152,306 145,299 138,291 132,283 127,274 123,264 121,254 122,243 123,238 124,232 127,227 129,221 159,208 159,208 168,198 178,188 191,176 206,163 223,152 231,147 240,143 248,140 256,138 256,138" fill="#ffebb9" stroke="#1a1a1a" stroke-width="8.89" fill-rule="evenodd"/>
    <polyline points="52,240 52,240 55,234 58,229 63,223 71,217 75,215 80,213 85,212 91,211 98,212 106,213" fill="none" stroke="#1a1a1a" stroke-width="8.89"/>
    <polyline points="52,267 52,267 55,261 58,255 63,249 71,244 75,241 80,240 85,238 91,238 98,239 106,240" fill="none" stroke="#1a1a1a" stroke-width="8.89"/>
    <polyline points="60,290 60,290 62,284 66,278 71,272 78,267 82,264 87,263 93,261 99,261 106,262 113,263" fill="none" stroke="#1a1a1a" stroke-width="8.89"/>
    <polyline points="439,346 439,346 445,344 452,342 460,342 468,343 473,345 478,347 482,350 487,355 491,360 495,366" fill="none" stroke="#1a1a1a" stroke-width="8.89"/>
    <polyline points="452,329 452,329 458,326 464,325 472,325 481,326 486,327 491,330 495,333 500,337 504,342 508,349" fill="none" stroke="#1a1a1a" stroke-width="8.89"/>
    <polyline points="238,185 237,245 342,361" fill="none" stroke="#1a1a1a" stroke-width="8.89"/>
    <polyline points="355,154 355,154 349,162 343,170 337,180 332,191 331,197 330,202 330,207 332,212 334,217 338,220 338,220 341,222 341,222 340,221" fill="none" stroke="#1a1a1a" stroke-width="8.89"/>
  </g>
</g></svg>