<svg xmlns="http://www.w3.org/2000/svg" viewBox="0 0 512 512" data-copyright="© 2026 Sensory App House"><!--SAH-COPYRIGHT © 2026 Sensory App House. All rights reserved.--><metadata id="sah-copyright"><rdf:RDF xmlns:rdf="http://www.w3.org/1999/02/22-rdf-syntax-ns#" xmlns:dc="http://purl.org/dc/elements/1.1/" xmlns:cc="http://creativecommons.org/ns#"><cc:Work rdf:about=""><dc:rights><cc:Agent><dc:title>© 2026 Sensory App House. All rights reserved.</dc:title></cc:Agent></dc:rights><dc:creator><cc:Agent><dc:title>Sensory App House (PiCom)</dc:title></cc:Agent></dc:creator><dc:date>2026</dc:date></cc:Work></rdf:RDF></metadata><metadata id="sah">{"v":1,"fig":[["h1","fa"]]}</metadata><g data-fit="1" transform="translate(256 256) scale(1.0012) translate(-256.00 -225.00)">
<path d="M 40 420 Q 150 360 256 384 Q 380 412 472 354 L 472 450 L 40 450 Z" fill="#7ec8f0" stroke="#1a1a1a" stroke-width="0" stroke-linejoin="round"/>
<path d="M 256 384 Q 360 406 440 366" fill="none" stroke="#fff" stroke-width="5" stroke-linejoin="round"/>
<line x1="241" y1="220" x2="214" y2="372" stroke="#39425c" stroke-width="16.0" stroke-linecap="round"/>
<line x1="271" y1="220" x2="300" y2="372" stroke="#39425c" stroke-width="16.0" stroke-linecap="round"/>
<ellipse cx="214" cy="376" rx="14" ry="7" fill="#33373d"/>
<ellipse cx="300" cy="376" rx="14" ry="7" fill="#33373d"/>
<polygon points="224,114 288,114 286,222 226,222" fill="#2b6fb0" stroke="#1a1a1a" stroke-width="5" stroke-linejoin="round"/>
<line x1="226" y1="116" x2="194" y2="168" stroke="#1a1a1a" stroke-width="13.0" stroke-linecap="round"/>
<line x1="286" y1="116" x2="318" y2="168" stroke="#1a1a1a" stroke-width="13.0" stroke-linecap="round"/>
<line x1="256" y1="114" x2="256" y2="83" stroke="#1a1a1a" stroke-width="13.0" stroke-linecap="round"/>
<path d="M 209.0 101.0 L 209.0 45.0 Q 209.0 -7.0 256.0 -7.0 Q 303.0 -7.0 303.0 45.0 L 303.0 101.0 L 290.0 101.0 L 290.0 47.0 Q 290.0 13.0 256.0 13.0 Q 222.0 13.0 222.0 47.0 L 222.0 101.0 Z" fill="#5a3a1f" stroke="#1a1a1a" stroke-width="3"/>
<circle id="h1" data-fig="fa" class="skin" cx="256" cy="47" r="40" fill="#f5d6b0" stroke="#1a1a1a" stroke-width="6"/>
<path d="M 218.0 13.0 Q 256.0 -1.0 294.0 13.0 Q 256.0 9.0 218.0 13.0 Z" fill="#5a3a1f" stroke="#1a1a1a" stroke-width="3"/>
<g transform="rotate(9.2 252 384)">
<path d="M 148 384 q -10 -10 0 -16 q 100 -10 200 0 q 10 6 0 14 q -100 12 -200 2 Z" fill="#f0a830" stroke="#1a1a1a" stroke-width="4" stroke-linejoin="round"/>
<line x1="182" y1="381" x2="344" y2="385" stroke="#b5742f" stroke-width="2.5" stroke-linecap="round"/>
</g>
</g></svg>
