<svg xmlns="http://www.w3.org/2000/svg" viewBox="0 0 512 512" data-copyright="© 2026 Sensory App House"><!--SAH-COPYRIGHT © 2026 Sensory App House. All rights reserved.--><metadata id="sah-copyright"><rdf:RDF xmlns:rdf="http://www.w3.org/1999/02/22-rdf-syntax-ns#" xmlns:dc="http://purl.org/dc/elements/1.1/" xmlns:cc="http://creativecommons.org/ns#"><cc:Work rdf:about=""><dc:rights><cc:Agent><dc:title>© 2026 Sensory App House. All rights reserved.</dc:title></cc:Agent></dc:rights><dc:creator><cc:Agent><dc:title>Sensory App House (PiCom)</dc:title></cc:Agent></dc:creator><dc:date>2026</dc:date></cc:Work></rdf:RDF></metadata><metadata id="sah">{"v":1,"fig":[["h1","mc"]]}</metadata><g data-fit="1" transform="translate(256 256) scale(1.1436) translate(-212.00 -300.00)">
<g transform="translate(0.3,26.6) scale(0.883)"><circle cx="120" cy="230" r="100" fill="#fcd24a" stroke="#1a1a1a" stroke-width="6"/>
  <circle cx="120" cy="230" r="82" fill="none" stroke="#1a1a1a" stroke-width="5"/>
  <text x="120" y="272" font-family="'Comic Sans MS','Century Gothic',Verdana,sans-serif" font-size="120" font-weight="900" fill="#2b2622" text-anchor="middle">$</text>
  <path d="M150 380 H250" fill="none" stroke="#1a1a1a" stroke-width="16" stroke-linecap="round"/>
  <path d="M240 350 L285 380 L240 410 Z" fill="#2b8a44" stroke="#1a1a1a" stroke-width="6" stroke-linejoin="round"/></g>
<line x1="357" y1="345" x2="351" y2="455" stroke="#1a1a1a" stroke-width="12.36" stroke-linecap="round"/>
<line x1="379" y1="345" x2="385" y2="455" stroke="#1a1a1a" stroke-width="12.36" stroke-linecap="round"/>
<ellipse cx="351" cy="457" rx="9" ry="5" fill="#33373d"/>
<ellipse cx="385" cy="457" rx="9" ry="5" fill="#33373d"/>
<polygon points="345,269 391,269 390,347 346,347" fill="#3fb24a" stroke="#1a1a1a" stroke-width="5" stroke-linejoin="round"/>
<polygon points="346,347 390,347 390,376 346,376" fill="#e0473c" stroke="#1a1a1a" stroke-width="5" stroke-linejoin="round"/>
<line x1="346" y1="271" x2="332" y2="347" stroke="#1a1a1a" stroke-width="9.36" stroke-linecap="round"/>
<line x1="390" y1="271" x2="404" y2="347" stroke="#1a1a1a" stroke-width="9.36" stroke-linecap="round"/>
<line x1="368" y1="269" x2="368" y2="246" stroke="#1a1a1a" stroke-width="9.36" stroke-linecap="round"/>
<circle id="h1" data-fig="mc" cx="368" cy="221" r="29" fill="#f5d6b0" stroke="#1a1a1a" stroke-width="6" class="skin"/>
<path d="M 339.2 221.0 Q 339.2 182.2 368 182.2 Q 396.8 182.2 396.8 221.0 Q 368 205.2 339.2 221.0 Z" fill="#5a3a1f" stroke="#1a1a1a" stroke-width="3" stroke-linejoin="round"/>
</g></svg>
