<svg xmlns="http://www.w3.org/2000/svg" viewBox="0 0 512 512" data-copyright="© 2026 Sensory App House"><!--SAH-COPYRIGHT © 2026 Sensory App House. All rights reserved.--><metadata id="sah-copyright"><rdf:RDF xmlns:rdf="http://www.w3.org/1999/02/22-rdf-syntax-ns#" xmlns:dc="http://purl.org/dc/elements/1.1/" xmlns:cc="http://creativecommons.org/ns#"><cc:Work rdf:about=""><dc:rights><cc:Agent><dc:title>© 2026 Sensory App House. All rights reserved.</dc:title></cc:Agent></dc:rights><dc:creator><cc:Agent><dc:title>Sensory App House (PiCom)</dc:title></cc:Agent></dc:creator><dc:date>2026</dc:date></cc:Work></rdf:RDF></metadata><metadata id="sah">{"v":1,"fig":[["h1","fa"]]}</metadata><g data-fit="1" transform="translate(256 256) scale(1.0883) translate(-222.00 -287.50)">
<g transform="translate(-15.4,34.3) scale(1.114)"><!-- Angel: halo + wings (no baby) -->
  <!-- Wings -->
  <path d="M 135 230 Q 40 180 30 250 Q 60 240 70 270 Q 35 270 40 320 Q 80 290 100 320 Q 100 280 135 290 Z" fill="#ffffff" stroke="#1a1a1a" stroke-width="5" stroke-linejoin="round"/>
  <path d="M 135 230 Q 230 180 240 250 Q 210 240 200 270 Q 235 270 230 320 Q 190 290 170 320 Q 170 280 135 290 Z" fill="#ffffff" stroke="#1a1a1a" stroke-width="5" stroke-linejoin="round"/>
  <!-- feather lines -->
  <path d="M 110 250 Q 80 250 60 265" fill="none" stroke="#1a1a1a" stroke-width="3"/>
  <path d="M 160 250 Q 190 250 210 265" fill="none" stroke="#1a1a1a" stroke-width="3"/>
  <!-- Halo -->
  <ellipse cx="135" cy="120" rx="78" ry="26" fill="none" stroke="#ffd740" stroke-width="16"/>
  <ellipse cx="135" cy="120" rx="78" ry="26" fill="none" stroke="#1a1a1a" stroke-width="4"/></g>
<line x1="354" y1="397" x2="324" y2="435" stroke="#1a1a1a" stroke-width="14" stroke-linecap="round"/>
<line x1="382" y1="397" x2="412" y2="435" stroke="#1a1a1a" stroke-width="14" stroke-linecap="round"/>
<ellipse cx="320" cy="437" rx="13" ry="8" fill="#33373d"/>
<ellipse cx="416" cy="437" rx="13" ry="8" fill="#33373d"/>
<line x1="346" y1="357" x2="316" y2="391" stroke="#1a1a1a" stroke-width="14" stroke-linecap="round"/>
<line x1="390" y1="357" x2="420" y2="391" stroke="#1a1a1a" stroke-width="14" stroke-linecap="round"/>
<path d="M 338 347 Q 332 405 368 409 Q 404 405 398 347 Z" fill="#ffcf33" stroke="#1a1a1a" stroke-width="5" stroke-linejoin="round"/>
<path d="M 319.0 361.0 L 319.0 303.0 Q 319.0 249.0 368.0 249.0 Q 417.0 249.0 417.0 303.0 L 417.0 361.0 L 404.0 361.0 L 404.0 305.0 Q 404.0 269.0 368.0 269.0 Q 332.0 269.0 332.0 305.0 L 332.0 361.0 Z" fill="#5a3a1f" stroke="#1a1a1a" stroke-width="3"/>
<circle id="h1" data-fig="fa" cx="368" cy="305" r="42" fill="#f5d6b0" stroke="#1a1a1a" stroke-width="6" class="skin"/>
<path d="M 368 266 q -11 -15 5 -17 q 13 -1 6 13" fill="none" stroke="#5a3a1f" stroke-width="4" stroke-linejoin="round"/>
<circle cx="348" cy="315" r="6" fill="#f4a4a4" stroke="#1a1a1a" stroke-width="0"/>
<circle cx="388" cy="315" r="6" fill="#f4a4a4" stroke="#1a1a1a" stroke-width="0"/>
<circle cx="355" cy="301" r="4" fill="#1a1a1a" stroke="#1a1a1a" stroke-width="0"/>
<circle cx="381" cy="301" r="4" fill="#1a1a1a" stroke="#1a1a1a" stroke-width="0"/>
</g></svg>
