<svg xmlns="http://www.w3.org/2000/svg" viewBox="0 0 512 512" data-copyright="© 2026 Sensory App House"><!--SAH-COPYRIGHT © 2026 Sensory App House. All rights reserved.--><metadata id="sah-copyright"><rdf:RDF xmlns:rdf="http://www.w3.org/1999/02/22-rdf-syntax-ns#" xmlns:dc="http://purl.org/dc/elements/1.1/" xmlns:cc="http://creativecommons.org/ns#"><cc:Work rdf:about=""><dc:rights><cc:Agent><dc:title>© 2026 Sensory App House. All rights reserved.</dc:title></cc:Agent></dc:rights><dc:creator><cc:Agent><dc:title>Sensory App House (PiCom)</dc:title></cc:Agent></dc:creator><dc:date>2026</dc:date></cc:Work></rdf:RDF></metadata><metadata id="sah">{"v":1,"fig":[["h1","ma"]]}</metadata><g transform="translate(172 256) scale(0.800) translate(-256 -277.0)">
<line x1="241" y1="303" x2="232" y2="455" stroke="#39425c" stroke-width="16.0" stroke-linecap="round"/>
<line x1="271" y1="303" x2="280" y2="455" stroke="#39425c" stroke-width="16.0" stroke-linecap="round"/>
<ellipse cx="232" cy="457" rx="13" ry="7" fill="#33373d"/>
<ellipse cx="280" cy="457" rx="13" ry="7" fill="#33373d"/>
<polygon points="224,197 288,197 286,305 226,305" fill="#5a3a7a" stroke="#1a1a1a" stroke-width="5" stroke-linejoin="round"/>
<line x1="226" y1="199" x2="194" y2="305" stroke="#1a1a1a" stroke-width="13.0" stroke-linecap="round"/>
<line x1="286" y1="199" x2="318" y2="305" stroke="#1a1a1a" stroke-width="13.0" stroke-linecap="round"/>
<line x1="256" y1="197" x2="256" y2="166" stroke="#1a1a1a" stroke-width="13.0" stroke-linecap="round"/>
<circle id="h1" class="skin" data-fig="ma" cx="256" cy="130" r="40" fill="#f5d6b0" stroke="#1a1a1a" stroke-width="6"/>
<path d="M 216.0 130.0 Q 216.0 80.0 256 80.0 Q 296.0 80.0 296.0 130.0 Q 256 103.0 216.0 130.0 Z" fill="#5a3a1f" stroke="#1a1a1a" stroke-width="3" stroke-linejoin="round"/>
</g>
<g transform="translate(352.0 262.0) scale(1.645) translate(-246.5 -327.0)">
<ellipse cx="222" cy="327" rx="44" ry="52" fill="#a9763c" stroke="#1a1a1a" stroke-width="4"/>
<circle cx="222" cy="327" r="15" fill="#3a2a18" stroke="#1a1a1a" stroke-width="0"/>
<line x1="250" y1="313" x2="306" y2="302" stroke="#7a4a24" stroke-width="13" stroke-linecap="round"/>
<rect x="300" y="286" width="16" height="20" rx="0" fill="#3a2a18" stroke="#1a1a1a" stroke-width="2"/>

</g></svg>