<svg xmlns="http://www.w3.org/2000/svg" viewBox="0 0 512 512" data-copyright="© 2026 Sensory App House"><!--SAH-COPYRIGHT © 2026 Sensory App House. All rights reserved.--><metadata id="sah-copyright"><rdf:RDF xmlns:rdf="http://www.w3.org/1999/02/22-rdf-syntax-ns#" xmlns:dc="http://purl.org/dc/elements/1.1/" xmlns:cc="http://creativecommons.org/ns#"><cc:Work rdf:about=""><dc:rights><cc:Agent><dc:title>© 2026 Sensory App House. All rights reserved.</dc:title></cc:Agent></dc:rights><dc:creator><cc:Agent><dc:title>Sensory App House (PiCom)</dc:title></cc:Agent></dc:creator><dc:date>2026</dc:date></cc:Work></rdf:RDF></metadata><g data-fit="1" transform="translate(44.00 80.55) scale(1.4621)">
  <!-- Bin/trash can as the stinky source object -->
  <!-- Bin lid -->
  <rect x="72" y="148" width="106" height="14" rx="5" fill="#7f7f7f" stroke="#1a1a1a" stroke-width="7.40"/>
  <rect x="116" y="138" width="18" height="14" rx="3" fill="#7f7f7f" stroke="#1a1a1a" stroke-width="5.93"/>
  <!-- Bin body -->
  <path d="M80 162 L86 222 L204 222 L210 162 Z" fill="#b8b8b8" stroke="#1a1a1a" stroke-width="7.40" stroke-linejoin="round"/>
  <!-- Bin lines -->
  <line x1="125" y1="162" x2="123" y2="222" stroke="#7f7f7f" stroke-width="4.45" stroke-linecap="round"/>
  <line x1="145" y1="162" x2="145" y2="222" stroke="#7f7f7f" stroke-width="4.45" stroke-linecap="round"/>
  <line x1="165" y1="162" x2="167" y2="222" stroke="#7f7f7f" stroke-width="4.45" stroke-linecap="round"/>
  <!-- Green wavy stink waves rising -->
  <path d="M100 138 Q93 118 100 98 Q107 78 100 58" fill="none" stroke="#529929" stroke-width="8.88" stroke-linecap="round"/>
  <path d="M125 138 Q118 114 125 90 Q132 66 125 42" fill="none" stroke="#529929" stroke-width="8.88" stroke-linecap="round"/>
  <path d="M150 138 Q157 112 150 86 Q143 60 150 34" fill="none" stroke="#529929" stroke-width="8.88" stroke-linecap="round"/>
  <path d="M175 138 Q182 115 175 92 Q168 69 175 46" fill="none" stroke="#529929" stroke-width="8.88" stroke-linecap="round"/>
  <path d="M200 138 Q207 118 200 98 Q193 78 200 58" fill="none" stroke="#529929" stroke-width="8.88" stroke-linecap="round"/>
  <!-- Small flies -->
  <!-- Fly 1 -->
  <ellipse cx="78" cy="82" rx="6" ry="4" fill="#4d4d4d" stroke="#1a1a1a" stroke-width="2.96"/>
  <ellipse cx="73" cy="79" rx="7" ry="4" fill="#dff3fd" stroke="#1a1a1a" stroke-width="2.96"/>
  <ellipse cx="83" cy="79" rx="7" ry="4" fill="#dff3fd" stroke="#1a1a1a" stroke-width="2.96"/>
  <!-- Fly 2 -->
  <ellipse cx="220" cy="68" rx="6" ry="4" fill="#4d4d4d" stroke="#1a1a1a" stroke-width="2.96"/>
  <ellipse cx="215" cy="65" rx="7" ry="4" fill="#dff3fd" stroke="#1a1a1a" stroke-width="2.96"/>
  <ellipse cx="225" cy="65" rx="7" ry="4" fill="#dff3fd" stroke="#1a1a1a" stroke-width="2.96"/>
  <!-- Fly 3 -->
  <ellipse cx="160" cy="52" rx="5" ry="3" fill="#4d4d4d" stroke="#1a1a1a" stroke-width="2.96"/>
  <ellipse cx="155" cy="49" rx="6" ry="3" fill="#dff3fd" stroke="#1a1a1a" stroke-width="2.96"/>
  <ellipse cx="165" cy="49" rx="6" ry="3" fill="#dff3fd" stroke="#1a1a1a" stroke-width="2.96"/>
</g></svg>